# Wavefront OBJ file automatically generated by Tiled2Unity

# Vertices (Count = 420)
v 0 -64 0
v -64 -64 0
v -64 0 0
v 0 0 0
v -128 -64 0
v -128 0 0
v -192 -64 0
v -192 0 0
v -256 -64 0
v -256 0 0
v -320 -64 0
v -320 0 0
v -384 -64 0
v -384 0 0
v -448 -64 0
v -448 0 0
v -512 -64 0
v -512 0 0
v -576 -64 0
v -576 0 0
v -640 -64 0
v -640 0 0
v -704 -64 0
v -704 0 0
v -768 -64 0
v -768 0 0
v -832 -64 0
v -832 0 0
v -896 -64 0
v -896 0 0
v -960 -64 0
v -960 0 0
v -1024 -64 0
v -1024 0 0
v -1088 -64 0
v -1088 0 0
v -1152 -64 0
v -1152 0 0
v -1216 -64 0
v -1216 0 0
v -1280 -64 0
v -1280 0 0
v -1344 -64 0
v -1344 0 0
v -1408 -64 0
v -1408 0 0
v -1472 -64 0
v -1472 0 0
v -1536 -64 0
v -1536 0 0
v -1600 -64 0
v -1600 0 0
v -1664 -64 0
v -1664 0 0
v -1728 -64 0
v -1728 0 0
v -1792 -64 0
v -1792 0 0
v -1856 -64 0
v -1856 0 0
v -1920 -64 0
v -1920 0 0
v -1984 -64 0
v -1984 0 0
v -2048 -64 0
v -2048 0 0
v -2112 -64 0
v -2112 0 0
v -2176 -64 0
v -2176 0 0
v -2240 -64 0
v -2240 0 0
v -2304 -64 0
v -2304 0 0
v -2368 -64 0
v -2368 0 0
v -2432 -64 0
v -2432 0 0
v -2496 -64 0
v -2496 0 0
v -2560 -64 0
v -2560 0 0
v -2624 -64 0
v -2624 0 0
v -2688 -64 0
v -2688 0 0
v 0 -128 0
v -64 -128 0
v -128 -128 0
v -192 -128 0
v -256 -128 0
v -320 -128 0
v -384 -128 0
v -448 -128 0
v -512 -128 0
v -576 -128 0
v -640 -128 0
v -704 -128 0
v -768 -128 0
v -832 -128 0
v -896 -128 0
v -960 -128 0
v -1024 -128 0
v -1088 -128 0
v -1152 -128 0
v -1216 -128 0
v -1280 -128 0
v -1344 -128 0
v -1408 -128 0
v -1472 -128 0
v -1536 -128 0
v -1600 -128 0
v -1664 -128 0
v -1728 -128 0
v -1792 -128 0
v -1856 -128 0
v -1920 -128 0
v -1984 -128 0
v -2048 -128 0
v -2112 -128 0
v -2176 -128 0
v -2240 -128 0
v -2304 -128 0
v -2368 -128 0
v -2432 -128 0
v -2496 -128 0
v -2560 -128 0
v -2624 -128 0
v -2688 -128 0
v 0 -192 0
v -64 -192 0
v -128 -192 0
v -2560 -192 0
v -2624 -192 0
v -2688 -192 0
v 0 -256 0
v -64 -256 0
v -128 -256 0
v -2560 -256 0
v -2624 -256 0
v -2688 -256 0
v 0 -320 0
v -64 -320 0
v -128 -320 0
v -2560 -320 0
v -2624 -320 0
v -2688 -320 0
v 0 -384 0
v -64 -384 0
v -128 -384 0
v -2560 -384 0
v -2624 -384 0
v -2688 -384 0
v 0 -448 0
v -64 -448 0
v -128 -448 0
v -2560 -448 0
v -2624 -448 0
v -2688 -448 0
v 0 -512 0
v -64 -512 0
v -128 -512 0
v -2560 -512 0
v -2624 -512 0
v -2688 -512 0
v 0 -576 0
v -64 -576 0
v -128 -576 0
v -2560 -576 0
v -2624 -576 0
v -2688 -576 0
v 0 -640 0
v -64 -640 0
v -128 -640 0
v -2560 -640 0
v -2624 -640 0
v -2688 -640 0
v 0 -704 0
v -64 -704 0
v -128 -704 0
v -2560 -704 0
v -2624 -704 0
v -2688 -704 0
v 0 -768 0
v -64 -768 0
v -128 -768 0
v -2560 -768 0
v -2624 -768 0
v -2688 -768 0
v 0 -832 0
v -64 -832 0
v -128 -832 0
v -2560 -832 0
v -2624 -832 0
v -2688 -832 0
v 0 -896 0
v -64 -896 0
v -128 -896 0
v -2560 -896 0
v -2624 -896 0
v -2688 -896 0
v 0 -960 0
v -64 -960 0
v -128 -960 0
v -2560 -960 0
v -2624 -960 0
v -2688 -960 0
v 0 -1024 0
v -64 -1024 0
v -128 -1024 0
v -2560 -1024 0
v -2624 -1024 0
v -2688 -1024 0
v 0 -1088 0
v -64 -1088 0
v -128 -1088 0
v -2560 -1088 0
v -2624 -1088 0
v -2688 -1088 0
v 0 -1152 0
v -64 -1152 0
v -128 -1152 0
v -2560 -1152 0
v -2624 -1152 0
v -2688 -1152 0
v 0 -1216 0
v -64 -1216 0
v -128 -1216 0
v -2560 -1216 0
v -2624 -1216 0
v -2688 -1216 0
v 0 -1280 0
v -64 -1280 0
v -128 -1280 0
v -2560 -1280 0
v -2624 -1280 0
v -2688 -1280 0
v 0 -1344 0
v -64 -1344 0
v -128 -1344 0
v -2560 -1344 0
v -2624 -1344 0
v -2688 -1344 0
v 0 -1408 0
v -64 -1408 0
v -128 -1408 0
v -2560 -1408 0
v -2624 -1408 0
v -2688 -1408 0
v 0 -1472 0
v -64 -1472 0
v -128 -1472 0
v -2560 -1472 0
v -2624 -1472 0
v -2688 -1472 0
v 0 -1536 0
v -64 -1536 0
v -128 -1536 0
v -2560 -1536 0
v -2624 -1536 0
v -2688 -1536 0
v 0 -1600 0
v -64 -1600 0
v -128 -1600 0
v -2560 -1600 0
v -2624 -1600 0
v -2688 -1600 0
v 0 -1664 0
v -64 -1664 0
v -128 -1664 0
v -2560 -1664 0
v -2624 -1664 0
v -2688 -1664 0
v 0 -1728 0
v -64 -1728 0
v -128 -1728 0
v -2560 -1728 0
v -2624 -1728 0
v -2688 -1728 0
v 0 -1792 0
v -64 -1792 0
v -128 -1792 0
v -2560 -1792 0
v -2624 -1792 0
v -2688 -1792 0
v 0 -1856 0
v -64 -1856 0
v -128 -1856 0
v -2560 -1856 0
v -2624 -1856 0
v -2688 -1856 0
v 0 -1920 0
v -64 -1920 0
v -128 -1920 0
v -2560 -1920 0
v -2624 -1920 0
v -2688 -1920 0
v 0 -1984 0
v -64 -1984 0
v -128 -1984 0
v -192 -1984 0
v -192 -1920 0
v -256 -1984 0
v -256 -1920 0
v -320 -1984 0
v -320 -1920 0
v -384 -1984 0
v -384 -1920 0
v -448 -1984 0
v -448 -1920 0
v -512 -1984 0
v -512 -1920 0
v -576 -1984 0
v -576 -1920 0
v -640 -1984 0
v -640 -1920 0
v -704 -1984 0
v -704 -1920 0
v -768 -1984 0
v -768 -1920 0
v -832 -1984 0
v -832 -1920 0
v -896 -1984 0
v -896 -1920 0
v -960 -1984 0
v -960 -1920 0
v -1024 -1984 0
v -1024 -1920 0
v -1088 -1984 0
v -1088 -1920 0
v -1152 -1984 0
v -1152 -1920 0
v -1216 -1984 0
v -1216 -1920 0
v -1280 -1984 0
v -1280 -1920 0
v -1344 -1984 0
v -1344 -1920 0
v -1408 -1984 0
v -1408 -1920 0
v -1472 -1984 0
v -1472 -1920 0
v -1536 -1984 0
v -1536 -1920 0
v -1600 -1984 0
v -1600 -1920 0
v -1664 -1984 0
v -1664 -1920 0
v -1728 -1984 0
v -1728 -1920 0
v -1792 -1984 0
v -1792 -1920 0
v -1856 -1984 0
v -1856 -1920 0
v -1920 -1984 0
v -1920 -1920 0
v -1984 -1984 0
v -1984 -1920 0
v -2048 -1984 0
v -2048 -1920 0
v -2112 -1984 0
v -2112 -1920 0
v -2176 -1984 0
v -2176 -1920 0
v -2240 -1984 0
v -2240 -1920 0
v -2304 -1984 0
v -2304 -1920 0
v -2368 -1984 0
v -2368 -1920 0
v -2432 -1984 0
v -2432 -1920 0
v -2496 -1984 0
v -2496 -1920 0
v -2560 -1984 0
v -2624 -1984 0
v -2688 -1984 0
v 0 -2048 0
v -64 -2048 0
v -128 -2048 0
v -192 -2048 0
v -256 -2048 0
v -320 -2048 0
v -384 -2048 0
v -448 -2048 0
v -512 -2048 0
v -576 -2048 0
v -640 -2048 0
v -704 -2048 0
v -768 -2048 0
v -832 -2048 0
v -896 -2048 0
v -960 -2048 0
v -1024 -2048 0
v -1088 -2048 0
v -1152 -2048 0
v -1216 -2048 0
v -1280 -2048 0
v -1344 -2048 0
v -1408 -2048 0
v -1472 -2048 0
v -1536 -2048 0
v -1600 -2048 0
v -1664 -2048 0
v -1728 -2048 0
v -1792 -2048 0
v -1856 -2048 0
v -1920 -2048 0
v -1984 -2048 0
v -2048 -2048 0
v -2112 -2048 0
v -2176 -2048 0
v -2240 -2048 0
v -2304 -2048 0
v -2368 -2048 0
v -2432 -2048 0
v -2496 -2048 0
v -2560 -2048 0
v -2624 -2048 0
v -2688 -2048 0

# Texture cooridinates (Count = 56)
vt 0.7273948 0.5001221
vt 0.8180597 0.5001221
vt 0.8180597 0.9998779
vt 0.7273948 0.9998779
vt 0.6364857 0.5001221
vt 0.7271507 0.5001221
vt 0.7271507 0.9998779
vt 0.6364857 0.9998779
vt 0.2728494 0.5001221
vt 0.3635143 0.5001221
vt 0.3635143 0.9998779
vt 0.2728494 0.9998779
vt 0.4546675 0.0001220703
vt 0.5453325 0.0001220703
vt 0.5453325 0.4998779
vt 0.4546675 0.4998779
vt 0.5455766 0.5001221
vt 0.6362416 0.5001221
vt 0.6362416 0.9998779
vt 0.5455766 0.9998779
vt 0.0001220703 0.5001221
vt 0.09078702 0.5001221
vt 0.09078702 0.9998779
vt 0.0001220703 0.9998779
vt 0.4546675 0.5001221
vt 0.5453325 0.5001221
vt 0.5453325 0.9998779
vt 0.4546675 0.9998779
vt 0.1819403 0.5001221
vt 0.2726052 0.5001221
vt 0.2726052 0.9998779
vt 0.1819403 0.9998779
vt 0.1819403 0.0001220703
vt 0.2726052 0.0001220703
vt 0.2726052 0.4998779
vt 0.1819403 0.4998779
vt 0.09103116 0.5001221
vt 0.1816961 0.5001221
vt 0.1816961 0.9998779
vt 0.09103116 0.9998779
vt 0.6364857 0.0001220703
vt 0.7271507 0.0001220703
vt 0.7271507 0.4998779
vt 0.6364857 0.4998779
vt 0.7273948 0.0001220703
vt 0.8180597 0.0001220703
vt 0.8180597 0.4998779
vt 0.7273948 0.4998779
vt 0.3637584 0.0001220703
vt 0.4544234 0.0001220703
vt 0.4544234 0.4998779
vt 0.3637584 0.4998779
vt 0.3637584 0.5001221
vt 0.4544234 0.5001221
vt 0.4544234 0.9998779
vt 0.3637584 0.9998779

# Normal
vn 0 0 -1

# Groups (Count = 1)

g mesh_0001
f 1/1/1 2/2/1 3/3/1 4/4/1
f 2/1/1 5/2/1 6/3/1 3/4/1
f 5/1/1 7/2/1 8/3/1 6/4/1
f 7/1/1 9/2/1 10/3/1 8/4/1
f 9/1/1 11/2/1 12/3/1 10/4/1
f 11/1/1 13/2/1 14/3/1 12/4/1
f 13/1/1 15/2/1 16/3/1 14/4/1
f 15/1/1 17/2/1 18/3/1 16/4/1
f 17/1/1 19/2/1 20/3/1 18/4/1
f 19/1/1 21/2/1 22/3/1 20/4/1
f 21/1/1 23/2/1 24/3/1 22/4/1
f 23/1/1 25/2/1 26/3/1 24/4/1
f 25/1/1 27/2/1 28/3/1 26/4/1
f 27/1/1 29/2/1 30/3/1 28/4/1
f 29/1/1 31/2/1 32/3/1 30/4/1
f 31/1/1 33/2/1 34/3/1 32/4/1
f 33/1/1 35/2/1 36/3/1 34/4/1
f 35/1/1 37/2/1 38/3/1 36/4/1
f 37/1/1 39/2/1 40/3/1 38/4/1
f 39/1/1 41/2/1 42/3/1 40/4/1
f 41/1/1 43/2/1 44/3/1 42/4/1
f 43/1/1 45/2/1 46/3/1 44/4/1
f 45/1/1 47/2/1 48/3/1 46/4/1
f 47/1/1 49/2/1 50/3/1 48/4/1
f 49/1/1 51/2/1 52/3/1 50/4/1
f 51/1/1 53/2/1 54/3/1 52/4/1
f 53/1/1 55/2/1 56/3/1 54/4/1
f 55/1/1 57/2/1 58/3/1 56/4/1
f 57/1/1 59/2/1 60/3/1 58/4/1
f 59/1/1 61/2/1 62/3/1 60/4/1
f 61/1/1 63/2/1 64/3/1 62/4/1
f 63/1/1 65/2/1 66/3/1 64/4/1
f 65/1/1 67/2/1 68/3/1 66/4/1
f 67/1/1 69/2/1 70/3/1 68/4/1
f 69/1/1 71/2/1 72/3/1 70/4/1
f 71/1/1 73/2/1 74/3/1 72/4/1
f 73/1/1 75/2/1 76/3/1 74/4/1
f 75/1/1 77/2/1 78/3/1 76/4/1
f 77/1/1 79/2/1 80/3/1 78/4/1
f 79/1/1 81/2/1 82/3/1 80/4/1
f 81/1/1 83/2/1 84/3/1 82/4/1
f 83/1/1 85/2/1 86/3/1 84/4/1
f 87/1/1 88/2/1 2/3/1 1/4/1
f 88/5/1 89/6/1 5/7/1 2/8/1
f 89/9/1 90/10/1 7/11/1 5/12/1
f 90/9/1 91/10/1 9/11/1 7/12/1
f 91/5/1 92/6/1 11/7/1 9/8/1
f 92/9/1 93/10/1 13/11/1 11/12/1
f 93/9/1 94/10/1 15/11/1 13/12/1
f 94/9/1 95/10/1 17/11/1 15/12/1
f 95/13/1 96/14/1 19/15/1 17/16/1
f 96/9/1 97/10/1 21/11/1 19/12/1
f 97/9/1 98/10/1 23/11/1 21/12/1
f 98/13/1 99/14/1 25/15/1 23/16/1
f 99/9/1 100/10/1 27/11/1 25/12/1
f 100/9/1 101/10/1 29/11/1 27/12/1
f 101/9/1 102/10/1 31/11/1 29/12/1
f 102/9/1 103/10/1 33/11/1 31/12/1
f 103/17/1 104/18/1 35/19/1 33/20/1
f 104/9/1 105/10/1 37/11/1 35/12/1
f 105/5/1 106/6/1 39/7/1 37/8/1
f 106/9/1 107/10/1 41/11/1 39/12/1
f 107/9/1 108/10/1 43/11/1 41/12/1
f 108/9/1 109/10/1 45/11/1 43/12/1
f 109/21/1 110/22/1 47/23/1 45/24/1
f 110/21/1 111/22/1 49/23/1 47/24/1
f 111/5/1 112/6/1 51/7/1 49/8/1
f 112/21/1 113/22/1 53/23/1 51/24/1
f 113/21/1 114/22/1 55/23/1 53/24/1
f 114/21/1 115/22/1 57/23/1 55/24/1
f 115/9/1 116/10/1 59/11/1 57/12/1
f 116/9/1 117/10/1 61/11/1 59/12/1
f 117/25/1 118/26/1 63/27/1 61/28/1
f 118/29/1 119/30/1 65/31/1 63/32/1
f 119/33/1 120/34/1 67/35/1 65/36/1
f 120/9/1 121/10/1 69/11/1 67/12/1
f 121/9/1 122/10/1 71/11/1 69/12/1
f 122/9/1 123/10/1 73/11/1 71/12/1
f 123/9/1 124/10/1 75/11/1 73/12/1
f 124/5/1 125/6/1 77/7/1 75/8/1
f 125/9/1 126/10/1 79/11/1 77/12/1
f 126/9/1 127/10/1 81/11/1 79/12/1
f 127/5/1 128/6/1 83/7/1 81/8/1
f 128/1/1 129/2/1 85/3/1 83/4/1
f 130/1/1 131/2/1 88/3/1 87/4/1
f 131/29/1 132/30/1 89/31/1 88/32/1
f 133/37/1 134/38/1 128/39/1 127/40/1
f 134/1/1 135/2/1 129/3/1 128/4/1
f 136/1/1 137/2/1 131/3/1 130/4/1
f 137/29/1 138/30/1 132/31/1 131/32/1
f 139/41/1 140/42/1 134/43/1 133/44/1
f 140/1/1 141/2/1 135/3/1 134/4/1
f 142/1/1 143/2/1 137/3/1 136/4/1
f 143/29/1 144/30/1 138/31/1 137/32/1
f 145/37/1 146/38/1 140/39/1 139/40/1
f 146/1/1 147/2/1 141/3/1 140/4/1
f 148/1/1 149/2/1 143/3/1 142/4/1
f 149/21/1 150/22/1 144/23/1 143/24/1
f 151/45/1 152/46/1 146/47/1 145/48/1
f 152/1/1 153/2/1 147/3/1 146/4/1
f 154/1/1 155/2/1 149/3/1 148/4/1
f 155/29/1 156/30/1 150/31/1 149/32/1
f 157/45/1 158/46/1 152/47/1 151/48/1
f 158/1/1 159/2/1 153/3/1 152/4/1
f 160/1/1 161/2/1 155/3/1 154/4/1
f 161/29/1 162/30/1 156/31/1 155/32/1
f 163/45/1 164/46/1 158/47/1 157/48/1
f 164/1/1 165/2/1 159/3/1 158/4/1
f 166/1/1 167/2/1 161/3/1 160/4/1
f 167/29/1 168/30/1 162/31/1 161/32/1
f 169/45/1 170/46/1 164/47/1 163/48/1
f 170/1/1 171/2/1 165/3/1 164/4/1
f 172/1/1 173/2/1 167/3/1 166/4/1
f 173/29/1 174/30/1 168/31/1 167/32/1
f 175/21/1 176/22/1 170/23/1 169/24/1
f 176/1/1 177/2/1 171/3/1 170/4/1
f 178/1/1 179/2/1 173/3/1 172/4/1
f 179/29/1 180/30/1 174/31/1 173/32/1
f 181/45/1 182/46/1 176/47/1 175/48/1
f 182/1/1 183/2/1 177/3/1 176/4/1
f 184/1/1 185/2/1 179/3/1 178/4/1
f 185/29/1 186/30/1 180/31/1 179/32/1
f 187/37/1 188/38/1 182/39/1 181/40/1
f 188/1/1 189/2/1 183/3/1 182/4/1
f 190/1/1 191/2/1 185/3/1 184/4/1
f 191/29/1 192/30/1 186/31/1 185/32/1
f 193/21/1 194/22/1 188/23/1 187/24/1
f 194/1/1 195/2/1 189/3/1 188/4/1
f 196/1/1 197/2/1 191/3/1 190/4/1
f 197/29/1 198/30/1 192/31/1 191/32/1
f 199/37/1 200/38/1 194/39/1 193/40/1
f 200/1/1 201/2/1 195/3/1 194/4/1
f 202/1/1 203/2/1 197/3/1 196/4/1
f 203/17/1 204/18/1 198/19/1 197/20/1
f 205/37/1 206/38/1 200/39/1 199/40/1
f 206/1/1 207/2/1 201/3/1 200/4/1
f 208/1/1 209/2/1 203/3/1 202/4/1
f 209/29/1 210/30/1 204/31/1 203/32/1
f 211/25/1 212/26/1 206/27/1 205/28/1
f 212/1/1 213/2/1 207/3/1 206/4/1
f 214/1/1 215/2/1 209/3/1 208/4/1
f 215/29/1 216/30/1 210/31/1 209/32/1
f 217/45/1 218/46/1 212/47/1 211/48/1
f 218/1/1 219/2/1 213/3/1 212/4/1
f 220/1/1 221/2/1 215/3/1 214/4/1
f 221/21/1 222/22/1 216/23/1 215/24/1
f 223/37/1 224/38/1 218/39/1 217/40/1
f 224/1/1 225/2/1 219/3/1 218/4/1
f 226/1/1 227/2/1 221/3/1 220/4/1
f 227/29/1 228/30/1 222/31/1 221/32/1
f 229/37/1 230/38/1 224/39/1 223/40/1
f 230/1/1 231/2/1 225/3/1 224/4/1
f 232/1/1 233/2/1 227/3/1 226/4/1
f 233/29/1 234/30/1 228/31/1 227/32/1
f 235/45/1 236/46/1 230/47/1 229/48/1
f 236/1/1 237/2/1 231/3/1 230/4/1
f 238/1/1 239/2/1 233/3/1 232/4/1
f 239/29/1 240/30/1 234/31/1 233/32/1
f 241/45/1 242/46/1 236/47/1 235/48/1
f 242/1/1 243/2/1 237/3/1 236/4/1
f 244/1/1 245/2/1 239/3/1 238/4/1
f 245/29/1 246/30/1 240/31/1 239/32/1
f 247/45/1 248/46/1 242/47/1 241/48/1
f 248/1/1 249/2/1 243/3/1 242/4/1
f 250/1/1 251/2/1 245/3/1 244/4/1
f 251/41/1 252/42/1 246/43/1 245/44/1
f 253/21/1 254/22/1 248/23/1 247/24/1
f 254/1/1 255/2/1 249/3/1 248/4/1
f 256/1/1 257/2/1 251/3/1 250/4/1
f 257/29/1 258/30/1 252/31/1 251/32/1
f 259/37/1 260/38/1 254/39/1 253/40/1
f 260/1/1 261/2/1 255/3/1 254/4/1
f 262/1/1 263/2/1 257/3/1 256/4/1
f 263/29/1 264/30/1 258/31/1 257/32/1
f 265/49/1 266/50/1 260/51/1 259/52/1
f 266/1/1 267/2/1 261/3/1 260/4/1
f 268/1/1 269/2/1 263/3/1 262/4/1
f 269/29/1 270/30/1 264/31/1 263/32/1
f 271/37/1 272/38/1 266/39/1 265/40/1
f 272/1/1 273/2/1 267/3/1 266/4/1
f 274/1/1 275/2/1 269/3/1 268/4/1
f 275/29/1 276/30/1 270/31/1 269/32/1
f 277/45/1 278/46/1 272/47/1 271/48/1
f 278/1/1 279/2/1 273/3/1 272/4/1
f 280/1/1 281/2/1 275/3/1 274/4/1
f 281/21/1 282/22/1 276/23/1 275/24/1
f 283/53/1 284/54/1 278/55/1 277/56/1
f 284/1/1 285/2/1 279/3/1 278/4/1
f 286/1/1 287/2/1 281/3/1 280/4/1
f 287/29/1 288/30/1 282/31/1 281/32/1
f 289/13/1 290/14/1 284/15/1 283/16/1
f 290/1/1 291/2/1 285/3/1 284/4/1
f 292/1/1 293/2/1 287/3/1 286/4/1
f 293/17/1 294/18/1 288/19/1 287/20/1
f 295/25/1 296/26/1 290/27/1 289/28/1
f 296/1/1 297/2/1 291/3/1 290/4/1
f 298/1/1 299/2/1 293/3/1 292/4/1
f 299/53/1 300/54/1 294/55/1 293/56/1
f 300/53/1 301/54/1 302/55/1 294/56/1
f 301/53/1 303/54/1 304/55/1 302/56/1
f 303/53/1 305/54/1 306/55/1 304/56/1
f 305/53/1 307/54/1 308/55/1 306/56/1
f 307/53/1 309/54/1 310/55/1 308/56/1
f 309/53/1 311/54/1 312/55/1 310/56/1
f 311/53/1 313/54/1 314/55/1 312/56/1
f 313/21/1 315/22/1 316/23/1 314/24/1
f 315/53/1 317/54/1 318/55/1 316/56/1
f 317/53/1 319/54/1 320/55/1 318/56/1
f 319/53/1 321/54/1 322/55/1 320/56/1
f 321/53/1 323/54/1 324/55/1 322/56/1
f 323/53/1 325/54/1 326/55/1 324/56/1
f 325/53/1 327/54/1 328/55/1 326/56/1
f 327/21/1 329/22/1 330/23/1 328/24/1
f 329/21/1 331/22/1 332/23/1 330/24/1
f 331/21/1 333/22/1 334/23/1 332/24/1
f 333/53/1 335/54/1 336/55/1 334/56/1
f 335/53/1 337/54/1 338/55/1 336/56/1
f 337/53/1 339/54/1 340/55/1 338/56/1
f 339/21/1 341/22/1 342/23/1 340/24/1
f 341/53/1 343/54/1 344/55/1 342/56/1
f 343/53/1 345/54/1 346/55/1 344/56/1
f 345/53/1 347/54/1 348/55/1 346/56/1
f 347/53/1 349/54/1 350/55/1 348/56/1
f 349/53/1 351/54/1 352/55/1 350/56/1
f 351/53/1 353/54/1 354/55/1 352/56/1
f 353/53/1 355/54/1 356/55/1 354/56/1
f 355/45/1 357/46/1 358/47/1 356/48/1
f 357/45/1 359/46/1 360/47/1 358/48/1
f 359/45/1 361/46/1 362/47/1 360/48/1
f 361/45/1 363/46/1 364/47/1 362/48/1
f 363/45/1 365/46/1 366/47/1 364/48/1
f 365/45/1 367/46/1 368/47/1 366/48/1
f 367/45/1 369/46/1 370/47/1 368/48/1
f 369/45/1 371/46/1 372/47/1 370/48/1
f 371/53/1 373/54/1 374/55/1 372/56/1
f 373/5/1 375/6/1 295/7/1 374/8/1
f 375/1/1 376/2/1 296/3/1 295/4/1
f 376/1/1 377/2/1 297/3/1 296/4/1
f 378/1/1 379/2/1 299/3/1 298/4/1
f 379/1/1 380/2/1 300/3/1 299/4/1
f 380/1/1 381/2/1 301/3/1 300/4/1
f 381/1/1 382/2/1 303/3/1 301/4/1
f 382/1/1 383/2/1 305/3/1 303/4/1
f 383/1/1 384/2/1 307/3/1 305/4/1
f 384/1/1 385/2/1 309/3/1 307/4/1
f 385/1/1 386/2/1 311/3/1 309/4/1
f 386/1/1 387/2/1 313/3/1 311/4/1
f 387/1/1 388/2/1 315/3/1 313/4/1
f 388/1/1 389/2/1 317/3/1 315/4/1
f 389/1/1 390/2/1 319/3/1 317/4/1
f 390/1/1 391/2/1 321/3/1 319/4/1
f 391/1/1 392/2/1 323/3/1 321/4/1
f 392/1/1 393/2/1 325/3/1 323/4/1
f 393/1/1 394/2/1 327/3/1 325/4/1
f 394/1/1 395/2/1 329/3/1 327/4/1
f 395/1/1 396/2/1 331/3/1 329/4/1
f 396/1/1 397/2/1 333/3/1 331/4/1
f 397/1/1 398/2/1 335/3/1 333/4/1
f 398/1/1 399/2/1 337/3/1 335/4/1
f 399/1/1 400/2/1 339/3/1 337/4/1
f 400/1/1 401/2/1 341/3/1 339/4/1
f 401/1/1 402/2/1 343/3/1 341/4/1
f 402/1/1 403/2/1 345/3/1 343/4/1
f 403/1/1 404/2/1 347/3/1 345/4/1
f 404/1/1 405/2/1 349/3/1 347/4/1
f 405/1/1 406/2/1 351/3/1 349/4/1
f 406/1/1 407/2/1 353/3/1 351/4/1
f 407/1/1 408/2/1 355/3/1 353/4/1
f 408/1/1 409/2/1 357/3/1 355/4/1
f 409/1/1 410/2/1 359/3/1 357/4/1
f 410/1/1 411/2/1 361/3/1 359/4/1
f 411/1/1 412/2/1 363/3/1 361/4/1
f 412/1/1 413/2/1 365/3/1 363/4/1
f 413/1/1 414/2/1 367/3/1 365/4/1
f 414/1/1 415/2/1 369/3/1 367/4/1
f 415/1/1 416/2/1 371/3/1 369/4/1
f 416/1/1 417/2/1 373/3/1 371/4/1
f 417/1/1 418/2/1 375/3/1 373/4/1
f 418/1/1 419/2/1 376/3/1 375/4/1
f 419/1/1 420/2/1 377/3/1 376/4/1

